<svg width="56" height="56" viewBox="0 0 56 56" fill="none" xmlns="http://www.w3.org/2000/svg">
<rect width="56" height="56" rx="16" fill="#300431"/>
<path d="M36 35.2634V30.5H38.1C38.1 32.4655 37.7002 33.5 36 35.2634Z" fill="#FFFCF2"/>
<path d="M21.7 35.2634V30.5H19.5C19.5 32.4655 20.3233 34 21.7 35.2634Z" fill="#FFFCF2"/>
<path d="M21.7 30.5108H19.5V19.4725L20.3123 19.2018C23.1202 18.2692 28.6114 15.5014 28.6515 15.4713L29.3334 15L30.0153 15.4713C30.0554 15.5014 34.5466 18.2591 37.3545 19.2018L38.1668 19.4725L38.1 30.6H36V21.1573C33.7537 20.2547 30.5167 18.6703 29.3233 17.8881C28.14 18.6703 23.9463 20.2547 21.7 21.1573V30.5108Z" fill="#FFFCF2"/>
<path d="M24 29L27.6667 32L33 25" stroke="#FFFCF2" stroke-width="2"/>
<path fill-rule="evenodd" clip-rule="evenodd" d="M25.8266 39.4892L23 36.6626C24.4825 36.4304 26.0719 36.9111 27.2408 38.075L27.2408 38.0749L27.2486 38.0828L28.6572 39.4914L30.0714 38.0772L30.0712 38.0769C31.2407 36.9073 32.834 36.424 34.3198 36.6567L31.4863 39.4902L31.4865 39.4905L28.6581 42.3189L28.6559 42.3167L28.655 42.3176L25.8344 39.497L25.8266 39.4892Z" fill="#FFFCF2"/>
</svg>
