<svg width="201" height="136" fill="none" xmlns="http://www.w3.org/2000/svg"><g clip-path="url(#a)"><path d="m145.993 53.815-27.938-1.29-10.386 13.273-6.524 29.22 3.492 7.376 22.055 16.038 17.095-2.672 1.93-15.21 4.136-33.462 1.562-9.126-5.422-4.147z" fill="#FF5D2B"/><path d="M146.338 54.551s-1.24 2.143-2.688 3.18a21.551 21.551 0 0 1-2.895 1.728s-6.686 7.604-7.581 8.78c-.896 1.175-3.86 1.727-5.997 2.626-2.136.899-2.964 1.106-4.48.554-1.517-.552-3.103-2.697-3.447-2.974-.344-.276-2.136.623-4.204 1.728-2.069 1.106-3.653 1.866-3.929 4.91-.276 3.041-1.378 10.785-1.86 14.034-.483 3.25-5.239 8.157-5.721 9.056-.482.9-4.411-7.88-4.411-7.88l6.203-22.815 10.891-12.997 3.999-2.143s4.066 8.367 4.136 8.573c.07.207 7.237 2.974 7.237 2.974l9.374-6.292 4.136-3.94 1.24.898h-.003z" fill="#D84B25"/><path d="M145.349 55.382s2.114 1.29 2.757 3.41c.644 2.121-.828 9.956-.828 9.956l3.032-9.219-1.562-3.595-3.032-1.383-.368.83h.001zM145.257 78.703s-2.848 10.417-3.584 15.302c-.736 4.886-1.103 12.353-1.103 14.289s.736 6.453.736 6.453l2.573.184.736-8.388.644-27.838-.002-.002z" fill="#D84B25"/><path d="M145.236 52.661s4.894 3.688 5.582 4.517c.689.828 5.791 2.626 10.064 6.636s4.411 4.701 4.411 4.701 2.756 1.244 3.722 3.319c.966 2.074 1.24 4.285.964 5.116 0 0 1.931 2.49 2.482 5.116 0 0 3.723 4.978 4.549 8.02a27.876 27.876 0 0 1 .828 10.37c-.414 3.872-1.378 8.435-1.378 9.127 0 .692.552 2.489 1.102 5.116.551 2.626.552 4.01-.552 5.531-1.102 1.521-3.998 3.734-5.514 6.36-1.517 2.627-6.203 5.116-10.754 5.393-4.548.277-7.445.277-11.165.554-3.723.276-6.755 0-9.374-3.319 0 0 .138-1.521 3.447-2.696a206.601 206.601 0 0 1 5.238-1.798s.068-2.074-.482-3.734c-.55-1.659-.69-4.494-1.102-5.392-.413-.899-2.275-1.591-4.549-1.521 0 0-.482-.416.552-1.038 0 0-1.24-4.01-1.31-6.706-.07-2.697.206-13.481 1.172-19.082.964-5.6 3.033-15.487 3.929-18.874.896-3.387 1.998-6.914 2.068-8.296.07-1.383-.068-2.005-1.24-3.457-1.173-1.453-3.171-2.58-3.171-2.58l.482-1.383h-.001zM119.709 51.094s-3.423.554-5.353 1.591c-1.93 1.037-3.79 1.59-4.618 1.66-.828.068-4.343.345-9.581 3.386-5.24 3.042-9.1 11.408-10.34 14.588-1.24 3.18-2.826 8.02-2.826 10.3 0 2.282.206 8.228.206 8.228l-3.722 24.612 9.099 1.176 8.477-10.094 2.895-11.2s1.24-4.909 2.826-9.955c1.586-5.047 3.17-11.546 3.79-15.97.621-4.424 3.309-10.37 4.895-12.445 1.586-2.075 4.803-3.71 4.803-3.71l-.552-2.167h.001z" fill="#CEEDFF"/><path d="M149.578 64.507s-3.4 9.678-4.044 11.245c0 0-.736 3.227-1.746 8.85-1.011 5.624-2.022 15.118-1.93 19.359.092 4.24 1.194 9.494 1.194 9.494l1.102 1.475.276 8.111-4.319 4.424.368 1.752s2.022 2.397 4.227 2.857c2.206.461 6.709.185 9.191.092 2.482-.092 7.995-.184 10.753-1.382 2.757-1.198 5.791-2.49 8.456-6.729 0 0 2.114-1.936 3.216-3.226 1.102-1.291 1.654-2.765 1.286-5.439-.368-2.675-1.562-4.149-1.654-5.44-.092-1.29.918-4.424 1.378-6.636.46-2.213.552-3.411.552-3.411s-.368 2.397-1.47 2.397c-1.102 0-1.47-.092-2.572-1.844-1.103-1.751.551-3.503-.092-5.716-.644-2.212-2.115-4.056-2.115-4.056s-5.973 5.716-7.261 6.545c-1.286.83-.459-1.014-.551-1.567-.092-.554-2.115.369-2.115.369s1.471-3.134 4.137-5.624c2.666-2.49 4.044-3.226 4.044-3.226s-1.654-2.49-1.838-4.24c-.184-1.75-1.194-3.503-1.47-2.672-.276.83-.276 2.857-1.195 1.936-.918-.921-7.077-6.822-7.719-7.743-.644-.92-.184-1.475.736-1.936.92-.461 1.378 0 1.746-.369.368-.369-4.87-3.872-6.065-4.608-1.194-.739-.644-1.383-.46-2.398.184-1.015-1.102 2.028-1.746 2.028-.644 0-1.102-2.397-2.298-2.672h-.002zM119.711 51.094s-6.065 1.29-9.466 3.227c0 0-4.136.046-8.455 2.534-4.319 2.49-7.903 6.544-10.569 12.63-2.666 6.084-3.86 10.508-4.136 12.629-.276 2.12-.46 4.149-.46 4.149l-4.137 30.235 10.294.831s2.114-21.201 2.572-25.258c.46-4.057 5.881-20.003 6.801-22.585 0 0-1.838 2.857-2.482 3.503-.644.646-2.39 2.95-3.308 4.793-.919 1.844-.828 2.49-1.195 2.765-.366.275-2.39-3.134-2.664-4.885-.276-1.752-.184-3.873.918-6.176 1.102-2.305 3.86-5.162 4.503-6.73.642-1.566-.368-1.843-.598-1.75-.23.091 5.652-4.425 7.123-4.932 1.47-.508 2.572-.692 2.756-.692.184 0-2.068 1.151-1.884 1.244.184.092 2.206-.6 3.17-.738.965-.139 2.253-.554 3.447-1.383s3.308-1.105 3.86-.83 1.701 1.244 1.701 1.244l2.298-1.429-.092-2.397.003.001z" fill="#AFCDDD"/><path d="M97.285 60.082s-3.4 3.873-5.881 9.127c-2.483 5.254-3.63 9.863-4.227 11.984-.598 2.12-.184 5.808-.184 5.808l-3.677 29.497 9.007-.921 2.757-19.819s.736-7.006 1.746-11.06c1.01-4.057 3.585-11.246 3.769-11.892.184-.646-2.483 1.013-3.217 3.134-.736 2.12-2.39 4.608-2.664 4.608-.275 0-1.655-3.964-2.022-5.07-.368-1.105-.46-3.872.091-5.07.552-1.197 4.871-7.65 5.791-8.572.92-.923.644-2.398-1.286-1.752l-.003-.002zM152.886 89.948s-1.103 2.858-.644 4.517c.46 1.659 1.286.276 1.286 2.672s.46 3.78.828 5.07c.368 1.29.46 1.567 1.562 1.106 1.102-.461 1.47-.554 2.39-.554.92 0 4.779-2.397 5.791-2.489 1.01-.093 2.298 1.013 3.584.921 1.287-.092 2.482.646 2.482.646s-6.892 1.751-7.719 2.489c-.826.738-4.779 3.688-5.79 3.965-1.012.276-.368 1.198.827 1.013 1.196-.185 7.169-1.29 9.1-1.475 1.93-.184 4.318 0 4.318 0s-5.238.369-3.584 1.844c0 0-6.923.951-8.363 1.475-1.44.523-2.39.461-3.033 1.751l-2.206-.553s-.092-1.29-.184-1.752c-.092-.461-2.114.369-2.022-1.198.092-1.567 1.01-4.332 1.01-5.439 0-1.107-1.01-6.729-1.01-8.111 0-1.383.276-3.503 1.378-5.9l-.001.002zM149.118 124.702l-7.353 2.305-1.47 1.844s2.206 2.489 3.584 2.857c1.379.367 3.769.461 5.699.461h1.93s-3.952-2.028-3.768-2.673c.184-.644 1.194-2.12 1.378-3.134.184-1.013 0-1.659 0-1.659v-.001zM152.334 131.616s3.952-1.659 5.607-2.305c1.654-.646 3.032-1.198 3.86-1.29.828-.093-.276 1.29.46 1.29s1.47 0 2.298.092c.828.092 0 1.475-2.114 1.844s-10.109.369-10.109.369h-.002z" fill="#8DB3C6"/><path d="M163.562 93.601a64.277 64.277 0 0 0-5.421 5.153c-.429.456-.928.921-1.125 1.533-.032.098.121.139.152.042.178-.557.632-.98 1.02-1.395a63.729 63.729 0 0 1 5.485-5.22c.077-.065-.035-.176-.111-.111V93.6zM155.807 82.04a38.958 38.958 0 0 1-1.035 4.164c-.031.097.122.138.152.041a38.024 38.024 0 0 0 1.035-4.165c.019-.098-.133-.141-.152-.04zM154.336 87.108c-.891.83-1.542 1.885-1.973 3.02-.457 1.207-.663 2.495-.692 3.782-.031 1.475.159 2.945.418 4.394.258 1.45.575 2.922.921 4.368.346 1.448.73 2.888 1.151 4.315l.159.533c.029.097.181.055.152-.042a84.124 84.124 0 0 1-1.164-4.249 83.156 83.156 0 0 1-.939-4.284c-.277-1.446-.507-2.908-.537-4.383-.027-1.317.112-2.637.512-3.894.366-1.152.95-2.245 1.781-3.128.105-.111.213-.218.324-.32.074-.07-.037-.182-.111-.112h-.002zM153.193 106.543a37.757 37.757 0 0 0 .519 5.814c.017.1.168.057.152-.041a37.25 37.25 0 0 1-.514-5.773c0-.102-.158-.102-.157 0zM155.635 106.393c.373-.595.853-1.109 1.364-1.588a48.056 48.056 0 0 1 1.585-1.406c.536-.46 1.105-.92 1.7-1.322a11.472 11.472 0 0 1 1.898-1.029c.766-.331 1.553-.616 2.292-1.006.09-.047.01-.183-.079-.137-.668.352-1.375.619-2.07.912-.695.293-1.329.605-1.944 1.005-.616.401-1.16.831-1.705 1.291a49.94 49.94 0 0 0-1.623 1.425c-.58.531-1.136 1.101-1.554 1.774-.054.086.082.165.136.079v.002zM157.269 106.776c.804-.439 1.651-.805 2.479-1.194l2.499-1.179c1.559-.735 3.131-1.465 4.782-1.973.92-.283 1.862-.495 2.82-.593.1-.01.101-.169 0-.158-1.721.178-3.377.71-4.971 1.368-1.651.683-3.254 1.477-4.87 2.239l-1.426.673c-.476.224-.939.434-1.393.682-.089.049-.009.185.08.137v-.002zM156.057 110.011a37.25 37.25 0 0 1 15.576-1.959c.102.01.1-.149 0-.157a37.512 37.512 0 0 0-15.614 1.966c-.095.034-.054.186.041.153l-.003-.003zM170.655 110.292a29.094 29.094 0 0 0-6.462-.121 29.106 29.106 0 0 0-6.315 1.3c-.792.258-1.9.6-2.079 1.548-.02.098.133.141.152.041.158-.838 1.126-1.158 1.828-1.392a29.113 29.113 0 0 1 12.877-1.22c.1.013.1-.145 0-.157l-.001.001z" fill="#15041C"/><path d="M155.998 112.895c-1.094-.549-2.341-.579-3.538-.625-1.282-.05-2.571-.088-3.85.054-.713.079-1.421.215-2.108.433-.096.03-.055.183.042.152 1.203-.382 2.468-.506 3.725-.522.625-.007 1.25.008 1.875.031.625.022 1.215.036 1.819.098.673.07 1.347.21 1.954.516.091.046.17-.091.079-.137h.002zM142.847 113.741c.048-.418.451-.679.831-.753.479-.092.998.02 1.472.101a15.33 15.33 0 0 1 4.313 1.417c.09.046.169-.091.079-.137a15.515 15.515 0 0 0-4.42-1.446c-.513-.086-1.023-.187-1.518-.081-.446.096-.858.423-.912.897-.011.101.146.101.157 0l-.002.002zM148.698 116.964c.605.5 1.207.999 1.812 1.497.077.064.188-.046.111-.111-.605-.5-1.207-.999-1.812-1.497-.077-.064-.188.046-.111.111z" fill="#15041C"/><path d="M143.098 114.048a8.676 8.676 0 0 1 3.082.689c.3.127.604.266.874.452s.469.431.569.741c.1.31.108.612.108.923 0 .31-.009.642.018.962.027.32.082.654.157.975.303 1.322.907 2.552 1.202 3.876a8.003 8.003 0 0 1-.054 3.652 8.167 8.167 0 0 1-1.096 2.52c-.168.255-.344.525-.555.743-.06.062-.156.095-.232.134l-.249.127c-.09.046-.011.181.08.137.077-.04.155-.08.233-.118.077-.038.181-.073.249-.131.054-.044.098-.116.142-.17.051-.062.1-.125.15-.189.191-.251.368-.514.528-.786a8.325 8.325 0 0 0 .763-1.721 8.277 8.277 0 0 0 .29-3.732c-.213-1.372-.823-2.633-1.191-3.961a7.295 7.295 0 0 1-.276-2.04c.006-.616.017-1.289-.411-1.78-.206-.237-.484-.401-.763-.541a8.83 8.83 0 0 0-3.614-.918c-.102-.003-.102.154 0 .158l-.004-.002zM156.702 120.507a34.37 34.37 0 0 1-.766 6.745c-.021.099.13.142.152.041a34.714 34.714 0 0 0 .771-6.785c0-.101-.156-.101-.157 0v-.001zM171.248 114.909a11.552 11.552 0 0 1 1.55 3.201c.349 1.139.526 2.329.521 3.52a11.399 11.399 0 0 1-.188 2.02c-.019.099.133.142.152.042.219-1.192.252-2.413.098-3.615a12.06 12.06 0 0 0-.985-3.468 11.636 11.636 0 0 0-1.012-1.781c-.057-.083-.193-.005-.136.079v.002zM174.987 117.303a54.68 54.68 0 0 1-1.21 5.538c-.027.098.125.14.152.041a54.8 54.8 0 0 0 1.21-5.536c.016-.099-.135-.142-.152-.041v-.002zM175.316 111.527l.397.975c.016.04.052.067.097.056.036-.01.071-.058.055-.097-.131-.325-.265-.649-.396-.976-.016-.039-.053-.066-.097-.055-.037.009-.071.057-.056.097zM105.883 56.572c1.581-.4 3.181-.807 4.625-1.593.734-.4 1.425-.87 2.16-1.271.734-.4 1.448-.73 2.204-1.023.852-.33 1.728-.596 2.619-.8.098-.022.057-.175-.041-.153a19.055 19.055 0 0 0-4.543 1.67c-.737.384-1.43.839-2.149 1.256-.718.416-1.469.746-2.25 1.011-.874.298-1.77.526-2.667.75-.098.025-.057.176.042.153zM102.123 68.77a358.806 358.806 0 0 0-1.862 4.935 141.491 141.491 0 0 0-1.735 4.987 91.807 91.807 0 0 0-1.492 5.048 63.562 63.562 0 0 0-1.127 5.095 50.696 50.696 0 0 0-.696 5.828c-.006.101.15.101.157 0 .103-1.747.306-3.488.593-5.214a61.9 61.9 0 0 1 1.08-5.103c.429-1.685.92-3.37 1.452-5.032a134.475 134.475 0 0 1 1.705-4.97 304.919 304.919 0 0 1 1.844-4.917l.236-.614c.037-.095-.115-.135-.152-.041l-.003-.002zM101.526 80.27a56.134 56.134 0 0 1-1.324 6.767c-.025.099.127.14.152.042a55.638 55.638 0 0 0 1.331-6.81c.013-.1-.144-.098-.157 0h-.002z" fill="#15041C"/><path d="M120.628 41.278s-.828 3.226-1.287 4.977c-.46 1.752-.458 3.76.322 7.604.828 4.08 3.447 10.002 3.999 10.74.552.738 1.424 2.097 2.894 2.189 1.471.092 2.781.184 4.619-.83 1.838-1.014 8.985-5.21 12.062-8.297 1.86-1.866 2.206-4.217 2.756-5.507.551-1.29 1.838-5.255 2.206-6.083.368-.83.828-6.545.552-7.006-.276-.462-5.33-5.163-5.79-5.255-.46-.092-7.261-1.66-8.18-1.66-.918 0-7.168 2.03-7.168 2.03s-2.941 2.212-3.677 3.318c-.736 1.105-3.308 3.78-3.308 3.78z" fill="#ECA682"/><path d="M145.165 39.895s-3.124 2.12-5.514 1.567c-2.391-.554-5.331-3.042-5.331-3.042s-1.746 1.383-3.86 1.383c-2.115 0-5.515-.277-6.157-.921-.644-.646-1.011 1.659-.552 2.397.458.738.828 1.844 2.39 2.213 1.562.369 3.906 1.958 3.998 2.512.092.553 1.424 2.373-3.194 0-1.301-.668-3.423-.508-3.423-.508s-2.379 2.517-2.136 4.771c.276 2.558.322 1.82.414 5.323.092 3.503-.068 4.747-.068 4.747s-.873-1.936-1.586-4.632c-.805-3.042-.946-4.117-1.081-6.154-.138-2.074.229-3.114.437-3.918.276-1.06.69-3.641 1.516-5.116.828-1.475 3.561-3.48 3.928-4.217.368-.738 2.573-1.567 2.573-1.567l6.893-.554 7.995 2.398 2.757 3.318h.001z" fill="#DE8D66"/><path d="M144.477 40.24s.276.968.276 1.936c0 .97 2.55 4.84 2.482 5.462-.069.622-.207 1.314-.207 1.314l3.377-4.01-5.721-6.016-.206 1.314h-.001zM124.779 57.313s.359 2.097.657 2.634c.298.538 2.03 1.617 2.568 1.677.537.06 1.478.053 2.463-.442.985-.495 3.023-1.55 3.023-1.55s-2.777.988-3.694 1.079c-.917.09-2.53-.293-3.158-.764-.628-.47-1.859-2.634-1.859-2.634zM136.085 47.619s-1.611.494-1.837.763c-.225.27-3.268 6.737-3.359 7.277-.09.539.806-.584 1.567-.584.761 0 1.075.808 1.388 1.482.312.675 1.164-6.288 1.208-6.783.045-.495 1.299-.495 2.732-.404 1.432.09 3.448.72 4.12 1.796.673 1.077.359-2.022-1.522-2.874-1.881-.853-4.3-.675-4.3-.675l.003.002zM123.48 46.922s.538 1.078 1.164 1.571c.627.493 3.627.9 3.941.988.314.09-3.313 2.111-3.985 2.156-.673.044-1.255-2.966-1.299-3.774-.045-.808.179-.943.179-.943v.002zM145.78 52.762s-1.702 3.054-3.09 4.266c-1.388 1.212-6.09 4.493-7.702 5.794-1.611 1.301-4.479 3.19-5.105 3.503-.627.313-1.612.495-1.612.495s1.008-.09 1.612-.293c.604-.204 1.859-.899 2.552-1.28.693-.382 4.523-2.786 5.597-3.504 1.074-.717 4.143-3.167 4.612-3.503.47-.335 1.837-1.909 2.06-2.537.156-.436 1.054-2.74 1.076-2.941z" fill="#DE8D66"/><path d="M125.436 55.456s.092.145.231.355c.306.463.836 1.236 1.082 1.443.358.3.775.899 1.045 1.049.27.15.568.119.657.21.088.09.358.24 1.224.089s2.419-.778 2.419-.778-2.866.299-3.225.24c-.358-.059-1.194-.93-1.194-.93l-.687-.807-1.552-.869v-.002z" fill="#DE8D66"/><path d="M125.375 54.737c.201-.3 2.836-3.054 2.836-3.054l-1.762 2.875-.061.988.359.719-1.313-.808s-.167-.56-.061-.72h.002z" fill="#DE8D66"/><path d="M129.038 50.542s-1.448 2.074-1.861 2.627c-.412.552-1.102 1.037-1.034 1.936.069.898.896 1.382.896 1.382s.483 1.175 1.173 1.52c.689.346 2.55 0 3.308-.068s1.24-.483 1.93-1.105c0 0-1.034.692-1.689.83-.655.139-2.217.139-2.699.139a1.467 1.467 0 0 1-1.31-.864c-.276-.587-.414-.738-.414-.738s-.644-.334-.804-.772c-.161-.438.138-1.118.436-1.498.298-.38 1.01-1.545 1.264-1.972.254-.426.804-1.417.804-1.417z" fill="#DE8D66"/><path d="m125.213 56.366 1.792 1.677 1.706.985 1.672.363 3.377.087-2.516.881-1.93.225-2.447-.708-1.672-1.919-.465-2.023.483.432z" fill="#DBD4D2"/><path d="M124.66 56.384s.138 1.21.482 2.351c.344 1.14 2.447 2.385 3.653 2.42 1.205.035 4.618-1.47 4.962-1.677.344-.207-2.894.916-3.86.881-.966-.035-2.137-.206-3.24-1.14-1.103-.934-1.723-2.732-1.861-3.145-.138-.414-.138.312-.138.312l.002-.002z" fill="#C4594E"/><path d="M124.73 55.934s1.344 1.452 1.896 2.039c.051.054.108.108.169.162.63.547 1.858 1.133 2.828 1.29 1.069.174 3.62.053 4.137.053 0 0-3.688-.224-4.481-.433-.793-.208-2.274-1.002-2.791-1.624-.517-.622-1.758-1.486-1.758-1.486v-.001z" fill="#C4594E"/><path d="M120.813 41s-2.298-.461-2.848-2.213c-.551-1.751-.368-4.149 1.01-5.808 1.378-1.66.736-1.844.736-3.041 0-1.198-.46-1.752.644-2.858 0 0-.644-2.212-.092-3.503.552-1.29 1.378-2.028 2.206-2.765.828-.736 2.849-.553 2.849-.553s1.378-2.49 4.318-1.567c0 0 1.287-1.66 3.861-1.752 2.574-.092 3.768.093 5.055 1.66 0 0 1.838-.921 3.86-.554 2.022.37 2.482 1.567 2.848 1.752.367.184 2.573-.185 4.137 3.318 0 0 2.39-.092 3.308.83.919.921.736 2.49 1.379 3.042.642.552 2.298 1.475 2.482 3.226.184 1.752-.644 2.305.184 2.765.828.46 1.562 2.213.736 4.057-.828 1.843-.552 2.765-1.103 3.687-.55.923-1.47 1.29-1.47 1.29s.092 2.121-.828 2.95c-.92.829-2.482 1.105-2.482 1.105s-.736 2.121-1.654 2.95c-.919.829-3.217.738-3.217.738s.919-1.475 1.471-3.688c0 0-2.573-1.659-2.849-3.133-.276-1.475 0-2.306-.552-2.858s-1.746-1.382-1.746-1.382-.644 1.567-3.033 1.567c-2.388 0-4.502-1.013-4.87-3.042 0 0-3.033-.461-4.779-.92 0 0-3.033-.278-4.227-.37-1.194-.092-2.482 2.12-3.308 3.226-.828 1.106-2.022 1.844-2.022 1.844h-.004z" fill="#262626"/><path d="M119.802 31.528s-1.86.139-3.102 1.591c-1.242 1.453-1.792 2.903-.828 4.424.964 1.521 3.447 3.25 4.343 3.387l-2.253-2.143s-1.505-1.14-1.849-2.246c-.344-1.106.931-2.626 1.378-3.077.448-.45 2.516-1.072 2.516-1.072l-.206-.864h.001zM127.521 18.67s1.792-1.798 3.033-2.697c1.24-.898 3.722-.692 4.686-.483.965.208 3.103 1.452 3.033 3.215l-.896-.692s.138-1.002-1.62-1.798c-1.757-.795-4.031-.415-4.721.104-.69.518-3.206 2.696-3.206 2.696l-.31-.345h.001zM138.549 18.601s1.207-1.279 2.171-1.866c.964-.587 3.343-.587 4.205.277.861.864 1.998 2.316 2.653 4.252l-.552-.173s-1.102-2.49-2.136-3.525c-1.034-1.037-3.136-1.037-4.067-.519-.931.519-2.068 1.833-2.068 1.833l-.206-.277v-.002zM156.747 32.981s1.895 1.244 2.377 2.903c.482 1.66-1.722 3.906-2.239 4.666-.517.76-1.723 1.176-1.723 1.176l.585-.692s.655-.416 1.62-1.728c.964-1.314 1.481-2.49 1.448-3.387-.035-.899-2.31-2.593-2.31-2.593l.242-.345z" fill="#262626"/><path d="M153.162 25.445s2.516 1.28 3.447 2.04 1.551 2.454 1.413 3.802c-.138 1.347-1.448 2.42-1.448 2.42l-.311-.346s1.137-.967 1.343-2.281c.207-1.314-.482-2.385-.999-3.077-.517-.692-3.722-2.246-3.722-2.246l.276-.312h.001zM148.855 22.61s.964-1.072 1.792-1.417c.828-.345 2.31-.035 2.792.415.482.45.69 1.728.62 1.936 0 0-.173-1.52-1.069-1.9-.896-.38-1.792-.554-2.585 0-.793.553-1.448 1.382-1.448 1.382l-.103-.416h.001zM120.526 26.102s-1.62.934-1.999 1.936c-.379 1.002-.344 2.246 1.516 3.354l.104-.312s-.862-.38-1.344-1.314c-.482-.934-.035-1.833.379-2.281.414-.45 1.654-1.176 1.654-1.176l-.31-.207zM124.213 42.73s1.516-.139 2.344 0c.828.138 3.102 1.727 3.722 2.764.621 1.038.759 1.521.552 1.521-.206 0-1.516-1.66-2.274-2.213-.758-.553-3.102-1.936-4.343-2.074l-.001.002zM135.24 47.984s1.034-.622 2.965-.483c1.93.138 3.032.692 3.722 1.244s.828 1.382.828 1.382-1.102-1.176-2.482-1.382c-1.38-.207-3.861-.9-5.033-.76z" fill="#262626"/><path d="M131.106 18.221c-.17-.136-.828.657-1.413.76-.586.104-1.414.14-2.345.658-.931.518-1.965 1.832-3.067 1.9-1.102.07-3.412.381-3.929 2.144-.517 1.762.552 2.384.379 2.973-.172.588-1.172 1.244-1.137 2.558.035 1.314.414 2.213.448 2.593.033.38-2.378 3.112-2.378 4.182 0 1.071.931 3.319 1.757 4.08.827.76 1.39.933 1.39.933s1.332-.853 2.022-1.844c.533-.765 1.678-2.216 1.998-2.558.368-.391 1.368-.75 1.678-.576.311.174.805 1.763 2.597 1.625 0 0-1.229-.047-1.884-1.602 0 0 1.413.08 2.274.184.861.103 1.906.3 2.044.37.138.07.598.184 1.218.322.621.139 2.183.438 2.391.3 0 0-.299-.946.459-.946.759 0 .805.161 1.839.404 1.034.244 1.172-1.417.964-2.177a24.602 24.602 0 0 1-.276-1.073s.861 1.106 1.586 1.244c.725.139 1.448.207 1.516-.483.068-.69.138-1.176.138-1.176s1.069.104 1.517.415c.447.312.723.83 1.207.796.483-.035 1.516.173 1.516-.174 0-.346-.517-.173-.552-.692-.035-.518.517-.725.931-.967.414-.242.896-.518-.861-.76-1.758-.242-1.931-.76-2.137-1.28-.206-.518-1.827-.586-1.827-1.14 0-.554.173-.899.964-1.002.792-.104.793-1.072.311-1.418-.482-.345-1.275-.242-1.93-.242s-3.308.174-4.136.484c-.828.31-1.207 1.383-1.723 1.521-.515.138-1.757.519-1.827 1.486-.07.967-.068 1.866.482 2.246 0 0-1.481-1.002-1.827-1.694-.346-.692-1.31.692-1.86.312-.551-.38-1.965-2.143-2.172-3.837-.206-1.695 1.138-4.15 1.62-4.494.482-.346.206-.45-.69-.796-.896-.347-.828-1.21.206-1.314 1.034-.103 1.965.138 2.274-.449.31-.587.414-1.659.242-1.797l.003.001zM144.304 19.534s.758.518 1.448.657c.69.138 1.31.277 1.793.864.482.587.551 1.002.964 1.694.412.692.758.83.793 1.14.035.31.103.38-.552.796-.655.415-.861 1.244-.999 1.486s-.62-.864-1.551-.796c-.931.069-3.274.346-3.999.657 0 0 1.586-1.14 1.999-1.347.412-.207-1.31.242-1.552-.587-.241-.829-.138-1.59.655-1.66.793-.068 1.586-.206 1.103-1.21-.484-1.004-.655-.934-1.275-1.21-.621-.277.723.034 1.24.068.517.033-.068-.554-.068-.554l.001.002z" fill="#000"/><path d="M136.274 36.438s.528 2.259 2.137 3.041c1.608.783 3.998-.276 4.686-.76 0 0-.712 1.314-2.32 1.52-1.608.208-3.561-.39-4.136-.806-.575-.415-1.449-1.105-1.541-2.604-.091-1.498 1.173-.391 1.173-.391h.001zM143.1 38.72s.896.114 1.654.575c.758.462 1.402 2.213 1.632 2.903.23.69 1.31 1.983 2.16 2.029.85.046 1.768 0 1.768 0s.23.83.736 1.037c.506.207 2.437.184 3.723-1.728 0 0-.046 1.152-.988 1.706a6.974 6.974 0 0 1-2.183.83s-.528 1.406-1.08 2.259-1.148 1.429-3.768 1.429c0 0 .828-1.706 1.034-2.328.206-.622.414-1.36.414-1.36s-1.654-1.037-2.482-2.259c-.828-1.222-.414-2.443-.598-3.112-.184-.668-2.022-1.982-2.022-1.982z" fill="#000"/><path d="M129.54 24.322c-.305.508-.609 1.02-.814 1.578-.217.59-.265 1.198-.212 1.822.023.286.058.575.152.848a2 2 0 0 0 .425.701c.369.412.842.745 1.331.997.556.288 1.161.47 1.782.545.1.01.1-.147 0-.158a4.974 4.974 0 0 1-2.853-1.34 2.189 2.189 0 0 1-.477-.642c-.113-.245-.162-.531-.191-.807-.06-.595-.047-1.183.138-1.758.197-.607.528-1.16.855-1.705.052-.087-.084-.167-.136-.08v-.001zM130.782 26.054c.593-.087 1.18.188 1.589.61.454.469.66 1.113.692 1.756.019.386-.019.773-.097 1.152-.02.098.132.141.152.041.145-.71.167-1.47-.08-2.159-.221-.614-.667-1.142-1.269-1.408a1.865 1.865 0 0 0-1.026-.146c-.1.014-.058.167.041.153l-.002.001zM132.748 24.933c.271.503.731.85 1.126 1.247.424.423.716.936.777 1.54a2.4 2.4 0 0 1-.106 1c-.032.096.121.138.152.04a2.576 2.576 0 0 0-.069-1.769c-.23-.556-.67-.95-1.101-1.358-.246-.234-.481-.479-.642-.78-.048-.089-.184-.01-.137.08zM132.872 23.527c.44.141.885.296 1.283.536.398.24.713.59.962.996.517.84.912 1.764 1.191 2.71.159.537.278 1.084.361 1.637.014.1.166.058.152-.041a11.9 11.9 0 0 0-1.515-4.297c-.246-.413-.536-.783-.936-1.053-.442-.3-.953-.477-1.457-.641-.097-.032-.138.12-.041.153zM134.414 22.25c.633.012 1.22.392 1.492.965.151.317.208.668.259 1.012.059.394.114.789.171 1.182.015.1.167.057.153-.042l-.143-.983c-.043-.299-.083-.603-.17-.894-.149-.507-.465-.937-.937-1.185a1.866 1.866 0 0 0-.825-.213c-.101-.002-.101.156 0 .157zM137.142 21.56a3.44 3.44 0 0 1 1.313 3.337 3.491 3.491 0 0 1-.381 1.066c-.049.089.087.168.137.08a3.61 3.61 0 0 0-.23-3.855 3.649 3.649 0 0 0-.758-.766c-.081-.06-.161.077-.08.137h-.001zM138.926 20.956c.749.242.955 1.11 1.076 1.793.073.416.168.824.274 1.233.106.408.186.857.193 1.3.008.494-.044.985-.096 1.476-.011.1.146.1.157 0 .049-.459.098-.918.098-1.38 0-.461-.063-.892-.173-1.33-.109-.437-.217-.863-.295-1.304-.071-.404-.149-.816-.346-1.182-.185-.344-.469-.637-.847-.757-.096-.032-.138.12-.041.152v-.001z" fill="#161616"/><path d="M140.76 26.646c-.998.651-2.1 1.408-2.411 2.633-.091.36-.116.73-.14 1.1-.024.368-.049.77.003 1.151.083.602.37 1.142.749 1.61.441.544.99.988 1.538 1.418.08.062.191-.05.111-.112-.894-.701-1.901-1.506-2.19-2.666-.087-.352-.09-.716-.071-1.075.019-.36.035-.73.093-1.09a3.008 3.008 0 0 1 .82-1.608c.46-.486 1.022-.86 1.578-1.224.084-.056.007-.192-.079-.137h-.001z" fill="#161616"/><path d="M142.9 27.593c-.985.036-1.995.388-2.648 1.156-.597.704-.839 1.679-.462 2.546a2 2 0 0 0 .993 1.035c.092.042.171-.095.079-.136-.764-.344-1.181-1.205-1.088-2.024.105-.915.768-1.672 1.577-2.057a3.913 3.913 0 0 1 1.549-.361c.102-.003.102-.162 0-.158v-.001zM142.163 32.025c.039-.619.423-1.16.926-1.5.593-.403 1.318-.5 2.017-.422.437.05.865.167 1.277.319.095.034.137-.118.041-.153-.764-.279-1.598-.444-2.407-.291a2.613 2.613 0 0 0-1.656 1.042 1.975 1.975 0 0 0-.357 1.003c-.006.102.151.102.157 0l.002.002zM142.792 32.634c.558-.76 1.768-.921 2.504-.33.078.061.191-.049.111-.112-.82-.659-2.128-.485-2.751.364-.061.081.076.16.136.08v-.002zM143.438 33.005l1.721 1.172c.52.353 1.046.683 1.665.826a3.643 3.643 0 0 0 3.22-.8 3.692 3.692 0 0 0 1.015-1.47c.036-.096-.116-.137-.153-.042a3.506 3.506 0 0 1-2.206 2.094 3.517 3.517 0 0 1-1.719.09c-.603-.119-1.12-.413-1.624-.754-.615-.415-1.228-.835-1.841-1.253-.085-.057-.164.08-.08.137h.002zM143.736 33.531c.027.575.032 1.15.016 1.725-.008.288-.022.574-.043.86-.02.287-.033.569-.079.848a1.5 1.5 0 0 1-.303.707c-.152.19-.336.356-.517.52-.374.339-.772.655-1.228.881-.52.258-1.122.379-1.693.234-.099-.025-.14.127-.042.153 1.066.27 2.08-.3 2.866-.974.381-.324.817-.68.992-1.167.092-.26.109-.54.133-.812a22.46 22.46 0 0 0 .057-2.975c-.005-.101-.162-.101-.157 0h-.002z" fill="#161616"/><path d="M141.968 36.414c-.247.32-.464.665-.721.977-.24.291-.519.54-.847.729-.627.358-1.358.485-2.071.509-.41.014-.82-.007-1.228-.045-.102-.01-.1.148 0 .158 1.431.132 3.086.054 4.122-1.085.319-.35.566-.757.855-1.131.062-.08-.049-.193-.111-.112h.001zM149.401 27.02c.647-.1 1.249.312 1.456.92.111.326.136.674.166 1.016.033.398.068.794.102 1.192.008.1.166.102.157 0l-.088-1.018c-.025-.303-.044-.61-.103-.909-.104-.542-.388-1.02-.907-1.245a1.473 1.473 0 0 0-.826-.107c-.1.016-.057.167.041.153l.002-.002zM149.856 25.677c.617-.006 1.269-.007 1.849.234.295.124.552.319.748.573.217.283.364.616.498.945.16.398.291.805.394 1.222.024.098.176.057.153-.042a9.022 9.022 0 0 0-.367-1.15c-.134-.343-.282-.692-.498-.994-.393-.552-.993-.81-1.646-.896a7.873 7.873 0 0 0-1.128-.047c-.101 0-.101.159 0 .157l-.003-.002zM153.352 30.714c1.269.542 2.167 1.791 2.362 3.151.055.387.051.783-.018 1.166-.017.1.135.142.153.042.249-1.413-.321-2.91-1.393-3.848a3.847 3.847 0 0 0-1.025-.65c-.092-.04-.172.098-.079.137v.002zM152.71 31.8c.692.362 1.026 1.245.754 1.975-.035.095.115.137.152.041.296-.794-.076-1.762-.825-2.154-.09-.046-.17.09-.079.137l-.002.002zM152.104 32.963a5.1 5.1 0 0 1 .383 3.375 4.9 4.9 0 0 1-.322.943c-.043.092.093.172.136.08a5.256 5.256 0 0 0 .298-3.523 5.14 5.14 0 0 0-.358-.956c-.045-.09-.181-.01-.137.08v.001zM154.085 37.544a1.927 1.927 0 0 1-1.022 1.608c-.09.046-.011.183.08.137a2.084 2.084 0 0 0 1.099-1.745c.004-.102-.154-.102-.157 0zM149.507 39.877c-.479.06-.967.102-1.449.09a2.026 2.026 0 0 1-.654-.11 1.273 1.273 0 0 1-.496-.353c-.27-.301-.454-.667-.733-.96a3.283 3.283 0 0 0-2.247-1.002c-.102-.003-.102.154 0 .157a3.12 3.12 0 0 1 2.157.979c.276.296.458.662.732.96.275.297.662.446 1.076.478.534.041 1.086-.013 1.616-.08.1-.012.1-.17 0-.157l-.002-.002zM145.791 40.098c.479.484.95.974 1.437 1.448.427.415.906.783 1.505.89.333.058.674.042 1.001-.047.098-.027.055-.18-.041-.153-.367.1-.754.102-1.119 0-.364-.101-.677-.305-.959-.548-.282-.244-.552-.532-.822-.804l-.889-.898c-.072-.072-.183.04-.111.11l-.002.002z" fill="#161616"/><path d="M146.166 41.762c.011.492.263.917.595 1.265.357.377.796.7 1.234.978.242.155.504.28.79.328.307.051.618.03.927-.005.63-.07 1.255-.187 1.867-.351.501-.134 1.171-.274 1.391-.813.038-.094-.114-.135-.152-.042-.181.444-.78.565-1.188.678-.573.158-1.158.277-1.748.35a4.83 4.83 0 0 1-.856.053 1.816 1.816 0 0 1-.803-.244c-.225-.127-.433-.281-.641-.434a6.102 6.102 0 0 1-.548-.449c-.373-.348-.697-.782-.709-1.312-.002-.102-.161-.102-.157 0l-.002-.002zM148.986 45.237c-1.399-.269-3.038-.759-3.566-2.251a1.997 1.997 0 0 1-.074-1.137c.024-.1-.129-.142-.152-.042-.17.71.069 1.438.504 2.003.477.619 1.175 1.002 1.903 1.246.438.146.89.246 1.342.332.098.02.141-.133.041-.153l.002.002zM121.319 32.685c-.12.689.226 1.324.603 1.874.322.468.801 1.204 1.477.966.095-.034.054-.186-.042-.153-.613.216-1.054-.533-1.337-.951-.333-.493-.655-1.076-.547-1.695.018-.098-.135-.141-.152-.04h-.002zM123.169 32.843c.099.895.818 1.672 1.709 1.82.099.016.141-.136.042-.153-.817-.135-1.501-.838-1.594-1.667-.012-.1-.169-.1-.157 0zM122.665 28.28a5.745 5.745 0 0 0 .455 2.327c.311.735.733 1.42 1.343 1.887.324.248.717.415 1.131.364.1-.012.1-.17 0-.157-.747.094-1.342-.535-1.737-1.091a5.597 5.597 0 0 1-1.032-3.33c0-.102-.155-.102-.157 0h-.003zM124.547 30.264a6.985 6.985 0 0 0 1.548 1.798c.077.063.19-.048.111-.112a6.878 6.878 0 0 1-1.525-1.766c-.052-.087-.188-.008-.136.08h.002zM126.41 29.109c.01.587.065 1.174.171 1.751.107.578.232 1.128.459 1.647.212.487.566.845 1.015 1.118a6.96 6.96 0 0 0 1.475.667c.596.19 1.224.29 1.851.258.101-.005.101-.164 0-.158-1.069.057-2.13-.282-3.06-.795-.45-.249-.842-.562-1.078-1.03-.236-.467-.368-1.038-.474-1.565a10.394 10.394 0 0 1-.202-1.896c0-.102-.158-.102-.157 0v.003z" fill="#161616"/><path d="M128.038 30.572c.362.552.73 1.117 1.236 1.548.471.401 1.066.683 1.695.654.102-.005.102-.162 0-.157-1.318.057-2.155-1.147-2.794-2.124-.056-.084-.192-.007-.137.08zM120.514 30.14c.028-.635.068-1.316.373-1.887.161-.304.398-.543.697-.71.346-.192.736-.32 1.122-.402.444-.095.904-.121 1.353-.056.098.015.141-.138.041-.152-.833-.121-1.699.038-2.455.402-.33.16-.611.385-.811.694a2.758 2.758 0 0 0-.357.932 7.525 7.525 0 0 0-.123 1.179c-.005.101.152.101.157 0h.003zM123.222 25.453c.025-.603.445-1.121.975-1.376.642-.309 1.415-.211 2.051.062.092.04.173-.097.079-.137-.555-.238-1.175-.348-1.772-.214a1.984 1.984 0 0 0-1.24.865c-.151.24-.239.516-.25.799-.005.101.153.101.157 0v.001zM127.423 23.261c-.215-.178-.436-.358-.686-.485-.235-.12-.475-.151-.732-.186-.234-.032-.518-.107-.523-.395-.005-.308.279-.507.504-.665.083-.057.005-.194-.079-.136-.249.171-.518.37-.572.69-.046.27.1.5.35.595.251.096.535.068.79.156.316.108.582.328.836.538.078.063.19-.048.111-.112h.001zM119.145 34.472a8.431 8.431 0 0 0-.127 3.485c.062.349.18.665.421.93.241.263.569.46.882.642.087.05.166-.086.079-.137-.268-.156-.539-.315-.765-.531-.252-.242-.385-.533-.452-.875a7.92 7.92 0 0 1-.099-2.211c.038-.427.111-.848.214-1.264.023-.098-.127-.14-.153-.041v.002zM128.247 20.576c.447-.444 1.085-.576 1.689-.627.339-.029.684-.041 1.025-.041.358 0 .731.033 1.059.189.328.156.587.402.682.748.027.097.179.055.152-.042-.195-.71-.948-.999-1.614-1.043a8.702 8.702 0 0 0-1.152.02c-.339.023-.68.06-1.008.155-.352.1-.684.27-.946.53-.071.071.04.182.111.11h.002z" fill="#161616"/><path d="M123.523 45.495s.897 1.175 1.861 1.936c.964.76 3.24.967 3.928.967 0 0-1.516-.692-2.894-1.383-1.378-.691-2.895-1.52-2.895-1.52zM135.518 50.82s.793 1.002 1.689 1.417c.896.415 3.481.312 4.445.312 0 0-4.342-.83-6.134-1.728v-.002z" fill="#1E1E1E"/><path d="M123.523 45.495s-.536.168-1.013.019l1.403.329-.716.15 1.103.119-.328.33.747.06-.388.36.716-.09-.239.33.836-.03-.149-.36-1.972-1.217zM141.652 52.547s.563.574.712.693l-1.046-.509.329.39-.866-.479.119.36-.419-.36.03.39-.717-.659.21.54-.627-.57.06.479-.388-.51.193-.212 2.408.448.002-.001z" fill="#1E1E1E"/><path d="M83.89 22.265s.206 4.356.138 5.116c-.069.76-.828 1.486-1.173 2.005-.344.518-.585.725-.585.725s-.861.864-.896 1.106c-.035.242-.035.484-.035.484s.035.138.138.311c0 0 .965 1.14 1 2.178.034 1.037-.139 3.112-.312 3.837-.172.726-.827 1.418-1.55 2.178-.724.76-1.276 1.798-2.31 3.354-1.034 1.555-1.93 2.454-2.101 2.834-.172.38-.448.968-.69 1.901-.243.934-.655 2.247-1.69 2.662-1.034.415-3.514.138-4.445-.104 0 0-.953 1.315-.953 2.594s-.138 2.49-.276 3.41c-.081.541.23 1.106.368 1.936.138.83 2.054 2.86 2.94 3.596 1.056.875 2.94 2.305 3.309 6.267.179 1.927.872 4.61.644 6.36l-4.871-4.01s-3.43-2.192-4.273-2.765c-1.286-.875-3.814-3.78-3.814-3.78.046-1.428.964-1.566.552-4.195-.094-.596-4.389-4.666-5.699-5.53 0 0-1.792-2.627-3.354-4.61-.984-1.247-3.079-1.797-3.079-1.797.344-.519 2.24-3.457 2.24-3.457l1.137-8.331.138-6.325 3.652-2.765 8.478-3.734 11.682-.035 5.686-1.417.004.001z" fill="#E69D62"/><path d="M67.904 29.718s2.687-.54 4.12-.628c1.434-.09 2.464.135 2.778.36.314.224-.045 2.38-2.06 2.874-2.017.495-2.687.18-3.449-.09-.76-.268-1.925-1.183-1.925-1.183s1.642.54 2.27.869c.628.33 1.238.315 1.536.269.299-.046.919-.337.919-.337s-.919.246-1.658.089c-.739-.158-3.09-1.348-3.09-1.348l.516-.269s3.605-.246 4.232-.292c.626-.047.761-.202-.314-.18-1.076.022-3.873-.135-3.873-.135l-.002.001zM63.068 39.69s-1.434.583-1.478 2.56c-.045 1.975.089 3.413.672 4.401.584.988 1.523 1.212 1.523 1.212s-1.388-2.022-1.434-3.953c-.046-1.931.717-4.222.717-4.222v.002zM66.831 39.197s-.582.135-1.299 1.302c-.717 1.168-.85 2.38-.626 3.55.223 1.169.805 1.527.94 1.616.135.089-.672-1.707-.626-2.47.046-.764.268-.809.268-.809s.268 1.303 1.12 2.291c0 0-1.03-1.438-.762-2.74.268-1.3.18-1.886.985-2.246.806-.36 3.269-.763 4.568-.808 1.299-.044 3.224.628 4.12.675l.896.044s-.493-.494-1.208-.584c-.715-.089-1.657-.082-2.15-.448-.49-.366-.672-1.931.494-1.438 1.166.493 1.478.628 1.343.044-.134-.584-.493-.988-1.522-.943-1.03.044-3.269 1.258-4.703 1.707-1.433.448-1.836 1.258-1.836 1.258l-.002-.001z" fill="#D38E5F"/><path d="M78.294 40.453s-.328.12-.568.03c-.24-.089-.537-.479-.747-.479-.21 0-.896.27-2.06.24-1.164-.028-1.762-.18-2.358-.18-.597 0 .477.27 1.403.42.927.152 1.79.21 2.538.21.747 0 1.79-.24 1.79-.24l.002-.001z" fill="#D38E5F"/><path d="M79.682 36.502s.519.978.582 1.662c.064.684-.224 1.392-.896 1.796-.672.404-1.075.495-1.075.495s.088.628-.224.943c-.312.315-.896.495-.896.495s-.044 1.527-.18 2.246c-.134.72-.76 2.067-.76 2.067s1.332-1.488 1.701-2.067c.37-.579 1.567-2.47 2.15-3.37.581-.898 1.387-1.167 1.836-2.425.449-1.259.268-2.74.089-2.74-.18 0-2.105.136-2.508-.315-.403-.45-.761-1.032-.761-1.032l.94 2.246.002-.002zM60.023 46.382s3.493 4.043 3.404 4.941c-.089.9.717 2.067 1.164 4.582.448 2.515 1.702 3.953 2.06 4.85.359.898 2.24 3.324 4.3 5.66 2.06 2.338 3.672 7.816 3.672 7.816l-1.702-8.623-1.523-2.606s-3.582-3.234-3.582-3.503c0-.27.358-5.21.358-5.21l-.538-3.324-4.209-1.707-3.404-2.874v-.002z" fill="#D38E5F"/><path d="M73.805 35.724s-.62.668-.989 1.175c-.367.508-.264 1.014.012 1.29.276.277.677.519.86.541.185.023 1.357.058 2.115.404.758.346 1.069.611 1.297.888 0 0-1.08-.806-1.94-.934-.697-.102-1.046-.16-1.414-.16-.368 0-1.034-.392-1.183-.726-.15-.334-.195-.633-.081-.98s.23-.507.368-.692c.138-.184.953-.806.953-.806h.002zM69.381 50.852s-2.757-.898-3.929-1.314c-1.172-.415-2.653-.967-3.376-1.59-.724-.624-2.206-2.49-2.483-2.765-.275-.276 1.62 3.663 2.654 4.597 1.034.934 4.17 2.04 4.79 2.108.62.068.747.484.747 1.002 0 .519.379 2.892.379 2.892s.712-3.997 1.218-4.931v.001zM78.72 34.179s.139.622.437 1.382c.298.76.736 1.453.896 1.959.16.505.252.944.046 1.382-.206.437-.918 1.198-1.218 1.29-.3.092-.666.277-.666.277s.552.046 1.172-.438c.62-.483.85-.91.942-1.186.092-.277.046-.875-.011-1.13-.057-.254-.447-.967-.62-1.301a16.792 16.792 0 0 1-.54-1.176c-.136-.334-.436-1.06-.436-1.06h-.001z" fill="#D07A4E"/><path d="M78.214 40.47s.022.41-.011.548c-.034.138-.585.778-.896.967 0 0 .447-.328.81-.554.363-.225.259-1.002.259-1.002l-.16.04-.002.002zM65.625 26.298s-4.917 3.457-6.203 4.747c-1.286 1.29-2.39 1.382-2.482 3.41-.092 2.03-.276 5.163-.092 6.822.184 1.66 1.194 5.07 1.01 6.545-.184 1.475-1.47 3.042-1.746 3.134-.276.092-.644 1.198-.644 1.198l-3.86-4.701 1.332-2.075.69-12.214 2.39-3.41 6.249-3.32 3.354-.138M68.244 55.105s-.828 3.41-.828 3.872c0 .46.828 1.382 2.022 2.672 1.194 1.29 2.94 2.49 3.309 4.609.368 2.119 1.378 4.332 1.562 5.808.184 1.476.46 3.042.46 3.042l1.746-.462-.918-7.927-2.665-5.623-4.686-3.042v-2.95h-.002zM72.85 36.53s-3.288 2.038-5.034 2.666c-1.746.629-1.746 2.247-2.06 3.19-.314.944-.359 2.65.223 3.37 0 0-1.03-.9-.94-2.56.088-1.661.805-3.37 1.478-3.863.672-.493 2.813-.795 6.333-2.801v-.002zM63.202 39.69s-1.343 1.212-1.208 3.19c.135 1.976.806 4.266 2.016 5.12 0 0-.94-1.347-1.12-2.875-.18-1.527-.672-2.874.314-5.434l-.002-.002zM72.98 31.441s-1.536.703-2.253.703c-.717 0-2.419-.853-2.956-1.078a6.217 6.217 0 0 1-.94-.495l.537.479s2.21.929 2.896 1.198c.687.268 2.388-.465 2.717-.809v.002zM78.803 32.159s.418.269.926.39c.508.12 1.313.24 1.85-.39l.09.105s-.18.434-.836.448c-.657.015-1.508-.03-2-.404l-.03-.15z" fill="#D07A4E"/><path d="m76.704 41.934.224.156-.207.95-1.104 1.279-2.532.035-3.515-1.055-1.878-1.503-.672-.917 2.6.156 3.861.622 3.223.277z" fill="#CCC"/><path d="M77.515 41.693s-.172.276-.552.138c-.379-.138-1.48-.277-3.24-.484-1.759-.206-4.136-.345-4.825-.38 0 0 2.207.657 3.17.934.965.277 2.413.725 3.171.725s1.207-.518 1.551-.553c.345-.035.724-.38.724-.38h.001z" fill="#8E4E46"/><path d="M67.484 41.52s1.896 1.555 3.758 2.004c1.86.448 3.343.518 4.066.312.724-.207 1.138-.726 1.31-1.003.173-.276.173-.76.173-.76l.276-.086s-.035.501-.223 1.297c-.19.795-.517 1.9-1.293 2.35-.776.451-2.568.329-3.515.036-.947-.293-2.532-1.28-3.153-1.987-.62-.708-1.722-2.54-1.81-2.731-.086-.191.224.345.415.57l-.004-.003z" fill="#8E4E46"/><path d="M70.196 41.047s-2.057-.196-3.102-.174c0 0 2.55.207 3.55.358l-.448-.184z" fill="#8E4E46"/><path d="m68.232 30.433 1.736-.034 2.263-.07.745.013-.333.448-1.4.739-.953-.06-.759-.274-1.299-.762zM81.14 30.838l-.024.824-.051.323-.558.108-.908-.08-.642-.236.111-.317.647-.42 1.056-.266.368.064z" fill="#CCC"/><path d="M69.943 30.469s.23.875.782.991c0 0 .712.022 1.149-.184.436-.207.758-.508.782-.945l-2.711.138h-.002zM81.11 30.768l-1.16.22-.404.23-.407.21c.225.454.674.678 1.177.678.313 0 .402 0 .643-.103 0 0 .322-.358.207-1.29" fill="#191519"/><path d="M67.945 30.355s3.17-.069 3.79-.115c.62-.046 1.24-.068 1.24-.068s.184.253.62.299c0 0-.918-.022-1.102-.069l.207.185-.943-.138.023.16-.828-.114.322.184-1.264-.16.252.16-1.332-.16.23.184-1.219-.345.004-.003zM81.709 30.605s.409.168.939.163c0 0-.876.015-1.342-.033 0 0 .458.21.83.221 0 0-1.043-.038-1.44-.092 0 0 .526.203.665.213 0 0-.828.033-1.065-.037 0 0 .27.16.41.193 0 0-.615.083-.809-.014l.194.097s-.728.116-1.025.144c0 0 .437-.504 1.117-.64a18.204 18.204 0 0 1 1.526-.215z" fill="#201A1D"/><path d="M72.805 30.722s-.598.53-1.39.807c-.486.17-1.516-.046-1.814-.23-.298-.185-1.402-.876-1.402-.876s1.624.867 2.09.945c.62.104.989.046 1.403-.138.358-.16 1.194-.646 1.056-.83h.368l-.31.322zM81.086 31.392s.276.508-.046.692c-.322.185-1.448.046-1.769-.068-.32-.115-.574-.438-.574-.438s.598.345 1.218.415 1.103.047 1.126-.114c.024-.16.046-.484.046-.484l-.001-.003z" fill="#201A1D"/><path d="M69.265 51.108s3.253 3.168 5.32 4.689c2.066 1.52 4.41 3.18 6.34 5.393 1.93 2.212 2.895 4.148 2.757 6.083-.138 1.936-2.344 4.978-2.344 4.978s.964 2.626 2.344 4.285c1.379 1.66 2.206 5.255 2.895 6.776.688 1.52 1.24 4.285 1.24 4.285s1.792 2.765 2.206 4.286c.414 1.52-.69 11.753-1.378 12.72-.69.968-1.516 2.075-1.654 3.319-.138 1.244-2.757 7.19-2.757 7.19l-15.854 2.49-3.17 14.104s-.965 2.765-3.17 2.627c-2.207-.139-3.585-.967-4.688-.692-1.102.277-3.032 2.489-3.722 2.351-.69-.138-3.446-1.798-4.136-2.765 0 0-3.86 1.383-7.031.967-3.17-.415-6.341-1.797-6.755-3.18-.414-1.382-.964-3.318.414-6.083 0 0-4.273-2.903-4.963-5.945-.69-3.042 0-6.36 0-6.36s-3.584-1.659-4.273-4.563c-.688-2.903 1.517-7.052 1.517-7.052s-1.93-3.18-2.483-4.84c-.552-1.658 0-3.456 0-3.456s-1.516-1.52-1.516-3.457c0-1.936.965-4.01.965-4.01s-1.793-1.66-1.793-4.01c0-2.352-.414-4.978.276-6.222l.69-1.245s0-3.318 1.102-4.839c1.103-1.52 4.963-4.978 4.963-4.978s.276-1.382 1.654-2.626c1.379-1.244 4.963-4.286 6.065-5.531 1.103-1.244 3.309-3.319 3.309-3.319v-1.52l4.687-3.457 5.514.138s3.86 4.84 5.239 6.36c1.378 1.52 4.136 3.595 5.239 4.84 1.102 1.243 1.24 3.041.964 3.871l-.69 2.075s2.206 1.936 3.033 2.903c.826.967 5.238 3.18 6.892 4.563 1.655 1.382 2.619 2.49 2.619 2.49s.414-2.075 0-3.458c-.414-1.382-.828-2.49-.828-2.49s-.828-3.04-1.378-4.423c-.55-1.383-1.93-2.075-3.17-3.457-1.241-1.383-1.793-2.558-1.793-2.558s.103-2.137.276-3.25c.287-1.855.506-2.72.506-2.72l.515-1.276h.005z" fill="#fff"/><path d="M50.875 48.33s0 2.489-1.517 4.01c-1.516 1.52-3.86 1.52-4.136 3.041-.276 1.521 0 1.521-1.378 1.798-1.379.277-2.895 1.244-3.585 2.765-.69 1.52 1.654 1.66.276 3.18 0 0-7.169-.277-8.685 1.106-1.516 1.382-2.756 2.765-2.756 4.01 0 1.246.275 1.66-.69 4.424-.965 2.765-1.655 6.222-2.482 7.604-.828 1.383 1.24-.692 2.344-.967 1.104-.275.69 1.798.138 2.765-.552.967-.69 1.798 1.378 2.075 2.068.276 4.41-1.383 7.445-1.66 3.032-.276 2.482-.692 4.136-.415 1.654.277-2.068.967-2.894 1.382-.827.416 4.548.277 6.203.968 1.654.692-4.411 1.382-4.137 2.49l.276 1.105s-1.24 1.244-1.93 1.382c-.69.139-5.927-.276-6.755-.415-.828-.138.552 11.2 1.102 12.168.552.968 2.757 4.286 3.17 5.532.415 1.245.553 1.936-.827 2.074 0 0-.552 1.659.414 1.659s4.41-3.595 6.479-4.01c2.068-.415-.138.554-1.792 2.351-1.655 1.798-4.137 2.627-4.137 3.042 0 .415-.138 3.457 4.687 2.765l3.17-.692s-5.652 3.457-.828 1.936l2.483-.967s-2.344 3.041-2.757 4.562c-.414 1.521-.69-1.382-2.344.554 0 0-1.378-.416-2.482 1.521-1.104 1.936-1.24 2.074.552 2.764 1.792.691 4.825.692 6.479.968s2.206.692 2.618 3.041c0 0 .276.692 1.793.415 1.516-.276 2.206-1.244 4.41-1.105 2.206.138 7.765.83 7.765.83s.322 1.982.873 2.581c.55.598 1.7.369 1.7.369s.092.875-.552 1.705c-.644.83-1.7 1.844-3.354 1.336-1.655-.507-1.977-.692-2.527-.553-.55.138-3.354 1.705-4.09 1.982-.736.277-2.482.323-3.17-.921-.69-1.244-1.195-1.89-1.333-1.936-.138-.046-2.022 1.521-5.653 1.474-3.63-.046-5.836-.874-7.169-2.074-1.332-1.199-1.838-2.719-1.976-3.826-.138-1.106 1.425-3.318 1.425-3.549 0-.231-.047-.738-.369-.967-.321-.229-1.378-.831-2.39-1.982-1.01-1.152-2.526-2.673-2.756-4.748-.23-2.074.414-3.687.46-3.964.046-.277.046-.646-.782-1.244-.828-.598-2.344-1.936-3.033-2.626-.688-.691-.552-2.719-.598-4.149-.046-1.43 1.333-2.95 1.425-3.457.092-.508-.46-2.12-1.378-3.642-.919-1.52-1.103-2.626-1.149-3.502-.046-.877.782-1.014.092-1.706-.69-.692-1.332-2.443-1.47-3.641-.138-1.198.552-2.673.69-3.273.138-.6.23-.784-.644-1.705s-1.102-4.47-1.056-6.176c.046-1.705 1.01-4.331 1.378-4.793.368-.461-.598-2.074 1.24-4.7 1.838-2.627 3.355-3.873 4.044-4.196.69-.323.873-1.659 2.573-3.364 1.7-1.706 8.501-8.25 8.731-8.758.23-.507.322-.92.322-.92s3.86-.093 4.503-.324c.644-.23 3.63-1.936 4.779-2.81l.008.002z" fill="#E8F0FC"/><path d="M62.883 65.959s-.569-.16-1.027-.76c-.459-.6-.368-1.383-.46-1.844-.092-.462-.965-.554-1.563-.554-.597 0-1.838-.692-2.71-.692-.872 0-2.573.921-3.078 1.06-.507.138-3.217.092-4.411.369-1.195.276-2.114.738-2.114.738s.413-.6.964-1.106c.55-.506 2.298-1.06 3.262-1.152.965-.092 2.619-.6 3.677-1.197 1.058-.599 3.906-2.26 4.273-2.26.366 0 1.838 1.245 2.436 1.937.598.692 1.148 2.074.964 2.672-.184.598-.736.967-.644 1.29.092.323 1.913 1.774 1.913 1.774l-1.482-.277v.002zM75.239 73.84l-.54-4.54s.782-1.337.919-2.097c.136-.76-.345-1.591.827-1.866 1.173-.275 2.757-.277 3.447.138.69.415 2.274 1.866 2.344 2.558.07.692-.344 1.314-.344 1.314s-1.722 1.038-2.619 1.176c-.896.138-2.206-.207-2.412.207-.206.413-1.62 3.111-1.62 3.111" fill="#E8F0FC"/><path d="M41.792 51.87c-.13.42-.075.858.017 1.28.092.421.195.82.303 1.226.21.796.462 1.586.84 2.318.38.732.968 1.408 1.433 2.127.464.72.839 1.435 1.17 2.195.376.864.678 1.762.919 2.671.025.1.177.058.152-.04-.42-1.592-1.03-3.14-1.881-4.55-.213-.35-.44-.693-.682-1.024-.243-.33-.519-.682-.742-1.048-.435-.711-.72-1.502-.949-2.3a34.01 34.01 0 0 1-.343-1.329c-.117-.483-.236-.994-.084-1.484.03-.097-.122-.138-.152-.041h-.001zM47.103 64.134l1.838-.948c.592-.305 1.176-.636 1.783-.907.608-.27 1.253-.316 1.903-.391a6.089 6.089 0 0 0 1.69-.436c1.073-.455 2.007-1.17 2.948-1.845.84-.605 2.05-1.467 3.06-.703.343.26.575.642.794 1.008.219.366.447.775.757 1.096.074.078.155.151.239.217.08.062.19-.05.111-.112-.718-.563-.963-1.506-1.592-2.146a1.68 1.68 0 0 0-1.3-.52c-.593.035-1.141.332-1.627.655-.99.66-1.901 1.428-2.962 1.975a6.039 6.039 0 0 1-1.667.588c-.638.116-1.294.11-1.92.288-.312.09-.605.228-.892.372-.306.156-.61.316-.915.473l-1.856.958-.473.243c-.09.046-.01.183.08.137l.001-.002zM62.508 61.713c-.1.767-.51 1.453-.628 2.215-.083.536.041 1.142.406 1.554.194.22.455.353.747.37.102.004.102-.154 0-.158-.531-.029-.852-.52-.968-.995-.153-.63.075-1.24.284-1.83.135-.378.264-.756.316-1.156.013-.1-.144-.1-.157 0zM67.605 70.173a31.909 31.909 0 0 1 5.053 2.883c.084.059.162-.078.08-.137a31.925 31.925 0 0 0-5.055-2.882c-.092-.042-.172.093-.08.136h.002zM75.664 75.701c1.21.71 2.099 1.823 2.808 3.017.36.607.68 1.239.986 1.875.341.708.731 1.429.879 2.208.127.673-.067 1.577.522 2.073.077.065.188-.046.11-.111-.251-.214-.342-.529-.378-.848-.037-.32-.03-.665-.076-.995-.113-.793-.499-1.523-.841-2.24-.608-1.267-1.258-2.54-2.175-3.615a6.908 6.908 0 0 0-1.757-1.5c-.087-.051-.166.084-.08.136h.002zM29.594 65.16c.408-.626 1.04-1.053 1.715-1.348.722-.319 1.505-.511 2.282-.632 1.615-.25 3.272-.13 4.861.224 1.59.355 3.174.955 4.65 1.696.738.37 1.47.773 2.099 1.313.563.481 1.009 1.07 1.392 1.703.736 1.214 1.266 2.57 2.215 3.643.115.132.237.256.366.377.075.07.185-.041.111-.111-1.075-1.009-1.646-2.4-2.365-3.66-.36-.63-.763-1.243-1.278-1.757-.587-.587-1.3-1.032-2.029-1.419-1.481-.786-3.053-1.422-4.68-1.83-1.627-.41-3.278-.58-4.925-.392-.8.092-1.597.262-2.355.54-.687.25-1.362.604-1.865 1.148a3.2 3.2 0 0 0-.332.428c-.055.085.081.163.137.08l.001-.002z" fill="#B3CACF"/><path d="M35.006 66.82a6.504 6.504 0 0 0-4.24 1.179 6.29 6.29 0 0 0-.95.827c-.07.073.04.186.11.111a6.364 6.364 0 0 1 3.857-1.936 6.162 6.162 0 0 1 1.223-.022c.102.008.1-.15 0-.158v-.001zM25.841 71.894a9.797 9.797 0 0 0-2.566 4.57 9.077 9.077 0 0 0-.253 2.812 7.37 7.37 0 0 0 .793 2.778c.483.95 1.122 1.813 1.758 2.667.06.081.197.002.137-.08-1.118-1.5-2.256-3.073-2.493-4.986-.226-1.804.185-3.688 1.018-5.293a9.574 9.574 0 0 1 1.72-2.355c.07-.071-.04-.183-.112-.11l-.002-.003zM26.455 85.036c-1.19.5-1.903 1.674-2.18 2.894a8.104 8.104 0 0 0-.172 2.133c.029.654.155 1.343.542 1.887s.998.928 1.669.869c.1-.008.102-.167 0-.158-.571.05-1.1-.254-1.453-.687-.403-.493-.55-1.149-.591-1.77a8.062 8.062 0 0 1 .112-2.002c.122-.654.327-1.234.677-1.767.35-.533.844-.995 1.44-1.246.093-.038.053-.19-.04-.153h-.004z" fill="#B3CACF"/><path d="M26.861 91.145a3.201 3.201 0 0 0-1.365 2.943c.011.1.168.1.157 0a3.047 3.047 0 0 1 1.288-2.808c.084-.057.005-.194-.08-.136v.001z" fill="#B3CACF"/><path d="M25.409 93.815c.127 1.358.9 2.51 1.543 3.673.342.62.644 1.257.83 1.944.2.744.296 1.511.397 2.273.113.848.238 1.698.52 2.507.034.096.186.054.153-.041-.505-1.443-.498-2.991-.84-4.47a8.234 8.234 0 0 0-.757-1.984c-.316-.598-.673-1.174-.985-1.775-.346-.667-.635-1.373-.704-2.129-.01-.1-.167-.102-.157 0v.002z" fill="#B3CACF"/><path d="M27.965 102.362c-.584.344-.894.963-1.037 1.605-.163.739-.145 1.512-.1 2.263.052.882.187 1.772.51 2.601.294.763.75 1.449 1.295 2.056.61.683 1.324 1.265 2.059 1.808.08.06.16-.077.079-.137-1.256-.929-2.487-2.013-3.152-3.46-.358-.783-.53-1.64-.605-2.493-.067-.746-.104-1.522.006-2.265.11-.743.374-1.458 1.026-1.841.087-.051.008-.188-.08-.137zM31.035 79.319a27.686 27.686 0 0 1-3.321 3.309c-.078.065.033.176.11.111a27.338 27.338 0 0 0 3.322-3.309c.065-.076-.046-.19-.11-.111zM43.603 80.2c.343-.146.704.263.93.465.309.277.62.552.93.829l1.844 1.645c.076.067.187-.045.11-.112l-1.549-1.38-.782-.697c-.26-.233-.49-.455-.748-.664-.232-.187-.517-.347-.814-.22-.094.04-.013.177.08.138V80.2zM49.824 78.181a13.545 13.545 0 0 1-.306 3.43c-.022.099.13.142.152.041.25-1.139.355-2.306.311-3.47-.003-.103-.162-.103-.157 0z" fill="#B3CACF"/><path d="M48.772 80.598c.47.186.704.673.89 1.11.1.24.193.487.307.722.138.285.31.552.485.816.356.53.725 1.05.935 1.661.209.611.275 1.236.279 1.868.003.728-.083 1.454-.173 2.175-.013.1.144.1.157 0 .16-1.294.322-2.652-.06-3.923-.19-.634-.538-1.176-.904-1.717a9.095 9.095 0 0 1-.52-.835c-.13-.247-.23-.506-.337-.762-.214-.512-.473-1.05-1.018-1.266-.094-.037-.135.114-.041.152v-.001z" fill="#B3CACF"/><path d="M50.723 88.445c.812.02 1.548.632 1.781 1.403.255.848-.187 1.67-.755 2.272-.34.361-.725.673-1.117.972-.079.06 0 .197.08.137.718-.55 1.489-1.168 1.847-2.028.172-.41.229-.867.123-1.302a2.159 2.159 0 0 0-.648-1.067 2.038 2.038 0 0 0-1.311-.546c-.102-.003-.102.156 0 .158v.001zM51.241 93.13c.216 1.504.432 3.009.646 4.512l.185 1.295c.014.1.167.058.152-.041l-.645-4.512-.186-1.295c-.014-.1-.166-.057-.152.042z" fill="#B3CACF"/><path d="M52.106 98.296c.591-.083 1.066.472 1.184 1 .159.704-.098 1.415-.226 2.1-.075.396-.11.799-.032 1.198.019.1.171.057.152-.041-.155-.788.173-1.559.278-2.331.087-.649.01-1.357-.52-1.804a1.112 1.112 0 0 0-.88-.273c-.1.014-.056.165.042.152l.002-.001z" fill="#B3CACF"/><path d="M53.072 102.78c.48-.023.937.292 1.123.734.185.442.014.969-.365 1.274a1.127 1.127 0 0 1-.76.255c-.101-.005-.101.152 0 .157.547.027 1.065-.337 1.272-.838.208-.501.014-1.111-.422-1.456a1.28 1.28 0 0 0-.848-.285c-.102.005-.102.163 0 .158v.001zM34.578 92.633a60.293 60.293 0 0 1 5.927 1.805c.095.035.136-.118.041-.153a60.424 60.424 0 0 0-5.925-1.803c-.098-.024-.14.127-.041.152l-.002-.001zM51.7 103.579a27.343 27.343 0 0 0-3.54.821c-1.16.35-2.299.768-3.417 1.236a48.314 48.314 0 0 0-3.3 1.54 79.415 79.415 0 0 0-3.233 1.753 183.77 183.77 0 0 0-3.17 1.857c-.132.079-.265.157-.397.237-.087.052-.008.187.08.136a262.693 262.693 0 0 1 3.148-1.853 85.816 85.816 0 0 1 3.223-1.772 51.141 51.141 0 0 1 3.286-1.572 36.153 36.153 0 0 1 3.4-1.279 27.57 27.57 0 0 1 3.96-.95c.1-.015.058-.168-.04-.152v-.002zM51.594 111.365a18.476 18.476 0 0 0-3.9-.729 13.977 13.977 0 0 0-1.82-.04c-.496.027-.997.099-1.465.268-.504.181-.955.48-1.266.924-.058.083.078.162.137.079.564-.806 1.598-1.048 2.525-1.107a13.333 13.333 0 0 1 1.719.024c.644.043 1.286.121 1.922.232.712.126 1.415.295 2.106.503.097.029.138-.122.042-.153v-.001zM44.836 113.67c-.26-.236-.614-.226-.935-.142-.407.108-.796.306-1.183.466-.844.352-1.692.692-2.53 1.06-.766.335-1.487.736-2.112 1.301s-1.136 1.214-1.657 1.86l-1.996 2.48c-.063.078.048.191.111.111l1.71-2.125c.514-.64 1.017-1.295 1.594-1.881a6.98 6.98 0 0 1 .923-.797 7.31 7.31 0 0 1 1.05-.604c.788-.379 1.61-.694 2.417-1.031.466-.194.93-.398 1.399-.582.333-.131.795-.279 1.096-.005.075.068.187-.043.111-.111h.002zM47.237 113.873c-.928.44-1.74 1.085-2.442 1.83-.703.744-1.325 1.619-1.886 2.501a50.202 50.202 0 0 0-.925 1.524c-.052.087.084.167.137.079 1.039-1.762 2.128-3.587 3.744-4.884a7.45 7.45 0 0 1 1.452-.913c.092-.043.01-.179-.08-.137z" fill="#B3CACF"/><path d="M45.285 114.841c-.956.448-1.865.992-2.713 1.622a16.884 16.884 0 0 0-2.348 2.108 17.45 17.45 0 0 0-3.362 5.306 16.558 16.558 0 0 0-.902 3.035c-.1.512-.175 1.028-.224 1.546-.057.594-.098 1.201-.032 1.796.067.595.245 1.114.587 1.575.298.401.687.722 1.112.98.958.579 2.078.856 3.166 1.066a19.058 19.058 0 0 0 7.871-.14c.317-.073.635-.156.947-.245.097-.029.056-.18-.041-.153a18.78 18.78 0 0 1-9.69.175 9.478 9.478 0 0 1-1.48-.483c-.922-.403-1.806-1.042-2.148-2.03-.208-.602-.214-1.248-.181-1.876.027-.523.08-1.043.162-1.561.158-1.026.419-2.034.769-3.011a17.33 17.33 0 0 1 3.104-5.35 16.935 16.935 0 0 1 2.222-2.171 15.986 15.986 0 0 1 3.266-2.051c.092-.043.01-.18-.08-.137l-.005-.001z" fill="#B3CACF"/><path d="M51.414 113.348c-1.322.08-2.384 1.047-3.27 1.944a16.233 16.233 0 0 0-3.426 5.178c-.04.094.112.136.152.042a16.155 16.155 0 0 1 3.177-4.89c.448-.474.902-.918 1.416-1.302.57-.428 1.227-.77 1.95-.814.1-.007.102-.164 0-.158zM65.95 114.629c-1.103-.77-2.615-.983-3.773-.2-.29.195-.539.445-.732.738-.056.084.08.164.136.079a2.604 2.604 0 0 1 1.404-1.03c.614-.191 1.27-.158 1.878.039.36.118.697.293 1.008.509.084.059.162-.078.08-.136v.001z" fill="#B3CACF"/><path d="M62.35 114.7c-.059-1.054-.773-1.964-1.69-2.435-1.02-.522-2.212-.436-3.228.044-.6.284-1.138.696-1.579 1.19-.068.075.043.188.111.112.74-.828 1.774-1.44 2.892-1.535a3.187 3.187 0 0 1 2.718 1.116c.357.425.587.953.619 1.51.006.1.163.102.157 0v-.002z" fill="#B3CACF"/><path d="M55.842 113.392c-.52-.163-1.05-.298-1.585-.403-.49-.097-1.008-.208-1.511-.18-.447.027-.847.207-1.134.559-.27.331-.427.733-.574 1.128a29.294 29.294 0 0 0-.94 3.105 66.626 66.626 0 0 0-.377 1.591c-.11.485-.228.97-.315 1.462-.169.946-.229 2.017.372 2.831.06.081.197.002.137-.079-.524-.708-.524-1.621-.4-2.456.068-.459.176-.91.278-1.362.114-.508.23-1.014.352-1.518.244-1.008.515-2.012.851-2.994.15-.433.294-.881.517-1.282.21-.375.51-.682.938-.784.528-.126 1.108.008 1.63.106.58.11 1.152.253 1.715.428.097.03.138-.122.041-.152h.005zM49.383 124.172a27.242 27.242 0 0 0-.434 4.307 26.943 26.943 0 0 0 .433 5.361c.058.307.14.62.315.884.317.481.88.713 1.423.829 1.362.291 2.77.019 4.073-.404a24.991 24.991 0 0 0 3.852-1.637c.154-.081.308-.162.46-.247.089-.049.01-.184-.08-.136a26.038 26.038 0 0 1-3.73 1.679c-1.284.46-2.618.813-3.974.678-.573-.057-1.22-.186-1.662-.584-.482-.432-.541-1.144-.636-1.746a26.833 26.833 0 0 1 .112-8.946c.018-.098-.133-.141-.152-.041v.003zM59.537 134.133c.944.213 1.918.427 2.887.278.728-.113 1.432-.479 1.884-1.072.246-.322.397-.7.42-1.106.007-.102-.152-.102-.156 0-.04.698-.51 1.279-1.089 1.631-.707.431-1.546.491-2.355.404-.523-.056-1.037-.172-1.55-.288-.098-.022-.14.13-.04.153zM83.822 88.904c-.406 1.431-.65 2.904-.793 4.384-.143 1.48-.184 2.996-.187 4.496-.002.844.008 1.69.019 2.535 0 .102.159.102.157 0-.019-1.489-.037-2.98.011-4.468.048-1.49.159-2.99.403-4.464.136-.823.314-1.639.542-2.442.027-.099-.123-.14-.152-.041zM82.43 103.059a84.578 84.578 0 0 0-4.255 12.044c-.027.099.125.14.152.041a84.362 84.362 0 0 1 4.24-12.007c.041-.093-.095-.172-.137-.08v.002zM67.72 93.42l-.154 4.418c-.05 1.473-.103 2.944-.154 4.417-.046 1.318-.073 2.643-.294 3.946a10.149 10.149 0 0 1-.478 1.832 7.65 7.65 0 0 1-.883 1.679c-.7 1.014-1.575 1.902-2.203 2.968a8.019 8.019 0 0 0-.222.407c-.046.091.09.17.136.08.563-1.119 1.434-2.028 2.174-3.024a8.606 8.606 0 0 0 .963-1.605 9.156 9.156 0 0 0 .576-1.82c.266-1.262.323-2.557.368-3.841l.155-4.441.156-4.458.019-.555c.003-.102-.154-.102-.157 0l-.002-.003zM75.098 69.052c.046-1.149.206-2.291.48-3.408.023-.098-.128-.14-.153-.041a17.443 17.443 0 0 0-.485 3.449c-.005.102.153.102.157 0h.001z" fill="#B3CACF"/><path d="M75.347 65.808c.504-.636 1.075-1.308 1.949-1.335.426-.013.861.064 1.281.13.375.058.747.131 1.107.247.36.116.69.264.987.486.319.235.564.55.733.91.179.386.27.812.337 1.23a20.597 20.597 0 0 1 .171 4.758c-.007.103.15.101.158 0a20.373 20.373 0 0 0-.147-4.602c-.064-.44-.145-.882-.312-1.297a2.587 2.587 0 0 0-.69-1 3.158 3.158 0 0 0-.946-.55 6.07 6.07 0 0 0-1.149-.3 11.045 11.045 0 0 0-1.272-.166c-.491-.027-.95.083-1.351.374-.38.273-.677.64-.966 1.004-.062.08.048.19.111.11h-.001z" fill="#B3CACF"/><path d="M77.893 30.122s1.611-1.527 2.552-2.201c.94-.675 1.88-1.079 2.372-1.123.492-.045.896.269 1.12.719 0 0-1.299.18-1.97.584-.67.404-3.373 1.692-3.88 2.23l-.194-.21v.002zM75.28 28.236c.326.04-.06-1.108-.806-1.497-.746-.39-4.807.42-5.881.598-1.074.178-1.911.479-1.911.479s2.896-.27 4.06-.36c1.164-.089 2.656-.24 3.313.269s.985.479 1.224.509v.002z" fill="#693F34"/><path d="M83.039 35.746s1.654-6.083 2.39-8.112c.736-2.028 1.654-7.006 2.206-8.296.552-1.29 1.102-1.936.552-2.49-.55-.553-1.47-1.474-1.746-2.12-.276-.646-.552-.83-1.103-1.752-.55-.92-1.838-2.305-2.94-3.318-1.102-1.013-1.562-1.936-2.482-2.58-.919-.646-2.757-1.475-3.769-2.398-1.01-.92-2.756-1.567-5.054-2.672C68.794.902 66.222-.482 62.36.164c-3.86.646-8.915 4.332-11.947 7.006-3.033 2.673-5.515 6.822-8.087 12.537-2.573 5.716-2.573 10.97-2.206 13.09.366 2.12 1.286 2.95 1.286 2.95s-.598-1.337-.736-2.766c0 0 1.838 3.918 2.572 5.209.735 1.29 3.677 3.272 3.677 3.272l-.598-.875s1.654 1.29 2.756 2.028c1.103.738 2.895 2.167 3.86 2.765.965.6 2.987 1.475 2.987 1.475s-.644-.6-.964-1.106l1.608 1.429-.69-1.336s1.425 1.89 1.563 2.626c0 0 .046-1.106.092-2.58.046-1.475-.138-3.872-.828-5.945-.69-2.073-1.47-3.688-1.609-5.024-.138-1.336-.046-2.397.046-2.673.092-.275 1.563-1.844 2.207-2.259 0 0-2.034 2.737-2.207 3.03 0 0 2.172-2.298 2.93-2.885l-1.948 2.334 2.31-2.282-3.171 3.302s3.786-3.266 4.98-4.235c1.194-.968 2.94-2.167 2.94-2.167s1.425-.37 2.437-.784c0 0-1.01.784-2.068 1.198 0 0 2.022-.6 2.802-1.014 0 0-.828.646-2.068 1.152 0 0 1.47-.138 2.802-.461 0 0-1.424.553-2.39.784 0 0 1.609-.046 2.71-.185 0 0-.551.37-1.423.508 0 0 5.79-1.244 6.662-1.567 0 0-.643.553-1.562 1.106 0 0 2.436-1.198 3.217-1.614 0 0-1.24.922-1.563 1.198l2.207-1.013-1.425 1.152s3.769-1.29 6.203-2.719c0 0-1.562 1.06-2.848 1.798 0 0 4.365-1.844 6.433-4.01 0 0-.506 1.059-.138 2.626s.736 1.982.736 1.982.092 2.166.184 2.903c.092.737-1.057 5.624-1.057 5.624l.004-.002z" fill="#8D7561"/><path d="M67.14 11.204s-5.032 6.083-7.927 9.61c-2.894 3.527-6.893 7.743-6.893 7.743s6.273-5.738 7.651-7.12c1.379-1.383 6.48-8.297 7.17-10.233zM67.622 11.688s-3.102 5.116-5.1 7.88c0 0 2.688-2.973 3.102-3.595 0 0-5.24 8.09-9.374 12.859 0 0 4.136-3.734 5.997-5.808 1.86-2.075 4.686-7.12 5.169-8.712 0 0-1.93 2.974-2.895 4.633 0 0 2.757-5.808 3.103-7.259l-.002.002z" fill="#693F34"/><path d="M70.586 10.65s-2.274 4.218-3.722 6.776c-1.449 2.558-4.619 6.844-7.307 9.126 0 0 3.584-2.764 5.652-5.393 2.069-2.626 4.963-9.54 5.377-10.509z" fill="#693F34"/><path d="M76.375 5.464s-3.032.139-4.756 1.728c-1.724 1.59-3.377 4.84-4.205 7.12 0 0 2.964-4.909 4.343-6.291 1.378-1.382 2.964-2.143 4.618-2.558v.001zM80.787 9.337s-.62.345-3.17 1.659-5.653 3.525-7.031 4.562c0 0 6.755-4.01 8.41-4.7 0 0-1.103 1.243-3.378 2.419 0 0 2.384-.937 4.156-1.928.82-.458 1.51-.93 1.771-1.322l-1.654.622.896-1.314v.002zM73.826 14.523s-3.308 2.28-4.549 3.94c-1.24 1.66-2.412 3.734-3.308 5.116 0 0 2.964-3.872 4.825-5.877 1.86-2.004 3.032-3.18 3.032-3.18zM77.685 14.176s-4.618 2.074-6.41 4.079c-1.793 2.004-3.86 3.872-3.86 3.872s7.03-6.36 10.269-7.951h.001zM75.688 16.734s-3.653 1.866-5.72 3.664c-2.069 1.797-3.31 3.25-3.31 3.25s3.103-2.904 5.102-3.872c0 0-2.895 4.01-4.137 5.047-1.24 1.038-4.48 2.42-4.48 2.42s3.308-.967 4.962-1.936 5.515-5.6 5.86-6.015c.343-.415 2.687-1.452 2.687-1.452l-4.066 1.382 3.102-2.49v.002z" fill="#693F34"/><path d="M75.825 19.085s-2.206 2.835-4.067 4.633c-1.86 1.797-5.376 3.18-6.41 3.525 0 0 5.445-2.004 7.789-3.664 2.344-1.659 2.756-4.424 5.306-6.083l-2.618 1.59zM51.632 29.247s-2.412 3.596-2.895 5.739c-.482 2.142-.068 4.148-.068 4.148s.276-2.903 2.344-5.53c0 0-1.034 2.626-.758 5.53 0 0 .62-5.184 2.482-7.604 1.86-2.42 6.617-7.467 7.651-9.402 0 0-4.686 3.25-8.753 7.121l-.003-.002zM82.857 10.79s-2.482 2.28-4.205 2.972c0 0 2.275-.967 3.723-1.797 0 0-3.515 2.835-5.791 4.01 0 0 5.032-2.835 7.1-4.355l-1.449.714 1.01-.875-1.678.714 1.287-1.382.003-.002zM83.544 12.378s-2.803 3.503-4.503 4.84c0 0 2.803-2.26 4.044-3.503l-.918.6 1.378-1.937h-.001zM83.13 22.922s-.103 1.66.069 2.593c.17.934.999 1.936.999 1.936s-1-2.8-.206-5.15c0 0-.276.241-.862.621z" fill="#693F34"/><path d="M84.338 22.127s1.069-.967 1.481-1.348c0 0 .173.934-.414 3.077-.585 2.143-.552 5.808-.793 6.914-.24 1.105-1.481 4.079-1.481 4.079s1.24-3.387 1.448-5.808c.208-2.422-.241-4.08-.241-5.048v-1.866z" fill="#693F34"/><path d="m84.82 21.781-1.31.9s-.137 1.658 0 2.66c.138 1.003.242 1.073.69 2.108.448 1.038-.034 4.08-.034 4.08l.482-1.453.138-3.664.035-4.632v.001z" fill="#693F34"/><path d="M131.841 116.589s-.276-15.026-.368-16.5c-.092-1.475-1.563-2.029-3.401-2.213-1.838-.185-38.047-3.688-39.61-3.78-1.562-.092-2.481.37-2.114 2.305.368 1.936 4.411 20.557 4.411 20.557l31.064 4.978 8.179-.922 1.839-4.424v-.001z" fill="#1E1E1E"/><path d="M128.142 99.075s2.551 0 2.619 1.453c.068 1.452.482 13.619.482 13.619s-.517-13.551-.69-13.966c-.173-.415-1.275-.934-2.412-1.106h.001z" fill="#5B5B5B"/><path d="M86.684 95.882s-.18-.838 1.134-.719c1.313.12 38.848 3.691 40.323 3.912 1.475.221 2.43-.08 2.608 2.437.177 2.517.477 13.656.477 13.656l.538-.719s.06-14.135-.836-15.092c-.896-.958-.298-.9-3.941-1.317-3.643-.419-37.975-3.713-39.11-3.774a1.155 1.155 0 0 0-1.195 1.616h.002z" fill="#0A0A0A"/><path d="M94.068 95.665s29.869 2.857 30.972 2.949c1.103.092-7.811-.508-14.796-1.06-6.985-.553-11.303-1.059-12.407-1.151-1.104-.093-4.779-.738-3.769-.738z" fill="#5B5B5B"/><path d="M65.394 115.391h26.468c1.838 0 2.757-.185 3.4-.738.644-.554 3.4-3.503 4.779-4.149 1.378-.646 3.493-.738 5.147-.646 1.654.092 5.515.461 6.525.461 1.01 0 4.136-.461 5.055-.646.918-.184 3.032.093 3.676.738.644.646.736 2.306-.46 3.319-1.194 1.013-3.768 1.382-5.331 1.567-1.562.184-3.584.461-3.584.461s.552.831 1.286 1.106c.734.275 5.423 1.29 7.353 1.567 1.93.277 4.227.83 6.433 1.105 2.206.277 3.124.323 3.124.323s-3.354 1.244-3.722 2.167c-.368.923-.592.985-.592.985s-2.958.294-3.049.846c-.092.552-.54 1.211-.54 1.211s-2.94 1.844-3.4 2.213c-.46.369-4.503-.277-4.779-.277-.276 0-.552.738-1.562.83-1.01.092-4.227-.277-5.423-.461-1.196-.185-3.86-1.383-5.606-1.844-1.747-.461-2.941-.646-4.78-.738-1.837-.092-3.952 0-5.88.369-1.929.369-14.796 3.319-18.105 4.149-3.308.83-6.34 1.659-7.169 2.028-.828.369-1.93-.277-2.206-1.382-.276-1.106-.276-3.503-.368-4.978-.092-1.475-.828-4.516-.552-6.083.276-1.567 1.47-3.226 3.86-3.503h.002z" fill="#E69D62"/><path d="M62.26 128.388s8.604-1.936 11.224-2.213c2.62-.277 4.825-.553 6.48-1.382 1.653-.831 9.236-2.075 12.269-2.213 3.032-.139 7.58-.139 10.339 0 2.758.138 3.86.83 5.239 1.521 1.378.69 4.136.553 6.341 1.105 2.206.554 4.618 1.453 4.618 1.453s-.447.725-1.792.76c-1.197.03-3.791-.415-3.791-.415s-.964.921-1.608.921c-.644 0-4.09-.369-5.377-.554-1.286-.184-6.96-2.177-8.11-2.408-1.149-.231-1.563-.103-3.585-.103-2.022 0-2.366-.207-6.687.76-4.319.967-12.342 2.663-15.808 3.641-7.353 2.075-7.719 2.167-7.719 2.167a1.572 1.572 0 0 1-1.7-1.072c-.287-.831-.333-1.971-.333-1.971v.003zM124.627 122.443s-2.965 1.105-3.585 1.175c-.62.07-2.274-.345-3.79-.553a393.272 393.272 0 0 1-6.273-.968c-.828-.138-1.31.069-.896.484.414.415.896.692 3.928.831 3.033.138 5.791.553 6.549.622.758.068 1.998-.416 1.998-.416l2.069-1.175zM112.083 115.391s-2.483.138-3.033.277c-.55.138 1.378.83 2.344 1.244.966.413 4.963 1.244 4.963 1.244s-4.273-1.453-5.101-1.936c-.828-.484.828-.831.828-.831l-.001.002z" fill="#D07A4E"/><path d="M117.597 126.557s2.448-1.038 2.895-1.244c.447-.207 1.275-.174 1.275-.174l-.276.207s-.964.173-1.378.484c-.414.31-1.827 1.21-1.827 1.21l-.69-.483h.001z" fill="#D07A4E"/><path d="M131.863 114.353s1.103-1.314 2.068-1.452c.965-.138 4.549-.207 5.859-.138 1.31.068 2.275 1.105 2.965 1.314.689.208 1.378-.346 3.376.622 1.999.967 1.034 1.936 1.723 3.872.69 1.936 1.586 5.599 1.034 6.153-.552.554-6.341 2.075-6.961 2.627-.621.552-2.275 2.764-2.895 3.041-.62.277-4.136.345-4.687.345-.55 0-3.308-1.59-3.79-1.866a58.159 58.159 0 0 0-2.895-1.452c-.62-.277-2.344-.692-3.652-1.037-1.31-.345-2.137-.415-2.413-.622-.276-.207-.414-1.936.276-2.282.69-.345 2.895-.622 2.895-.622s.068-1.175 1.722-1.866c1.654-.69 2.206-1.244 2.206-1.244l1.931-3.525 1.24-1.866-.002-.002z" fill="#ECA682"/><path d="M136.895 114.423s-3.768 2.996-4.319 3.134c-.55.139-1.332.6-2.068.967-.736.368-2.664 1.66-2.664 1.66s2.894-1.567 3.814-1.89c.92-.323 1.884-.692 2.711-1.244.826-.552 2.526-2.627 2.526-2.627zM127.936 123.273s3.447-.138 4.136-.277c.69-.138 4.411-1.982 5.745-2.351 1.334-.369 3.401-.507 3.815-.461.413.046-1.471.646-2.299.967-.828.321-5.146 2.213-6.111 2.534-.964.322-3.032.646-3.906.785-.872.138-1.47.138-1.47.138s.23-.921.092-1.336l-.002.001zM121.869 125.069s3.539.277 5.147.323c1.608.046 4.319-.138 5.836-.323 1.518-.185 2.941-1.013 3.769-1.013.828 0 1.608.138 1.424.599-.184.462.828.462 1.7.416.873-.047.69-.277 1.425-.646.734-.369 1.562.83 2.16.83.598 0 2.756-.231 3.768-.369 1.012-.138 1.608-.231 1.608-.231s-4.456 1.521-5.422 2.029c-.966.507-1.976.507-2.849 1.797-.872 1.291-1.608 2.167-2.618 2.259-1.011.093-2.665.046-4.091-.276-1.426-.323-3.538-1.66-4.548-2.213-1.011-.554-3.171-1.106-3.953-1.475s-2.436-.646-2.802-.784c-.367-.139-.506-.692-.552-.921l-.002-.002z" fill="#CC805A"/><path d="M140.593 115.871c.265.9.516 1.806.751 2.716.025.098.177.057.152-.042a86.385 86.385 0 0 0-.75-2.715c-.029-.097-.181-.056-.153.041zM141.641 122.074v1.29c0 .102.157.102.157 0v-1.29c0-.102-.157-.102-.157 0zM129.952 124.364c.671-.043 1.344-.087 2.008-.195a8.779 8.779 0 0 0 1.954-.56c.632-.263 1.226-.56 1.829-.859a89.59 89.59 0 0 0 3.93-2.07c.089-.049.01-.186-.079-.137a85.841 85.841 0 0 1-3.637 1.925c-1.196.597-2.401 1.236-3.724 1.492-.752.147-1.518.196-2.281.245-.099.007-.101.164 0 .158v.001zM130.738 128.582a129.572 129.572 0 0 1 6.428.512c.1.011.1-.148 0-.157a127.435 127.435 0 0 0-6.428-.513c-.101-.004-.101.153 0 .158zM127.786 127.126c1.543.314 3.124.25 4.672.01 1.578-.245 3.125-.664 4.67-1.065l2.685-.695c.098-.025.057-.178-.041-.152-1.556.402-3.109.819-4.668 1.202-1.559.384-3.074.695-4.647.75-.881.03-1.764-.028-2.628-.204-.099-.021-.141.132-.042.153l-.001.001z" fill="#C17148"/><path d="M87.094 28.937c-.035-.103-1.102-.38-2.447-.449-1.345-.068-2.55.207-3.998.52-1.448.31-2.483 1.105-2.483 1.105-.896-.38-1.792-.035-1.792-.035-1.481-2.005-3.067-1.971-4.721-1.971-1.655 0-3.17.38-3.723.518-.552.139-1.172.139-1.343.139-.171 0-.782-.345-.782-.345l-2.619-1.198-.545-.288-1.223.933s4.084 2.282 4.377 2.403c.294.12.844.432.844.432s-.052 3.371-.017 3.596c.035.224.602 1.364 1.912 1.797 1.31.433 3.274.277 4.481-.294 1.207-.571 2.119-1.745 2.67-2.54.553-.796.811-1.884.811-1.884.224-.139.949-.295 1.293-.225.344.07.57.433.57.433-.053.312-.03 1.031-.03 1.031l.829 2.627c.46.622 1.459.61 2.285.645.828.035 1.723-.138 2.654-1.14.93-1.002 1.965-3.492 2.068-3.699.103-.207.344-.103.447-.138.103-.035.517-1.866.482-1.971v-.002zM75.32 32.244c-.437.554-1.563 2.398-2.711 3.02-1.148.622-1.976.714-3.032.646-1.057-.069-2.229-.622-2.32-1.66-.093-1.037-.185-2.259.435-3.386.62-1.13 1.86-1.29 2.55-1.36 1.382-.139 2.873-.392 3.953-.093 1.08.3 1.332.875 1.424 1.268.092.391.138 1.013-.298 1.567l-.001-.002zm10.2-1.336c-.067.37-.551 2.374-1.905 3.618-1.356 1.244-3.195.945-3.907.668-.712-.277-.896-1.084-.804-2.512.092-1.429.427-1.693.85-2.097.482-.461 1.24-.99 1.93-1.13.69-.138 1.678-.23 1.678-.23l2.207.807s.022.507-.047.875l-.001.001zM65.602 78.153l.634-.116.766 6.148-.67.174-.73-6.206zM68.016 78.186l-.605.115.16 1.17-.53.109.102.78.534-.114.496 3.637.635-.164-.516-3.603.798-.17-.116-.76-.791.161-.167-1.161zM62.533 78.716l-1.453 6.996.804-.206c.625-.174 1.134-.739 1.405-1.458l-1.172.288.597-3.005c.11-.545.196-1.008.296-1.538h.007c.182.47.347.881.544 1.357l.688 1.67c-.414.237-.755.68-.963 1.228l1.334-.327.404.973.743-.19-2.487-5.925-.75.139.003-.002z" fill="#2F0930"/></g><defs><clipPath id="a"><path fill="#fff" transform="translate(23)" d="M0 0h155v136H0z"/></clipPath></defs></svg>